<svg enable-background="new 0 0 32 32" height="32" viewBox="0 0 32 32" width="32" xmlns="http://www.w3.org/2000/svg"><g fill="#121313"><path d="m16 0c-8.837 0-16 7.163-16 16 0 8.836 7.163 16 16 16 8.836 0 16-7.164 16-16 0-8.837-7.164-16-16-16zm0 30c-7.732 0-14-6.268-14-14s6.268-14 14-14 14 6.268 14 14-6.268 14-14 14z"/><path d="m25.707 15.286-6.899-6.999c-.391-.395-1.024-.394-1.414 0-.391.395-.391 1.034 0 1.429l5.2 5.275h-15.594c-.552 0-1 .452-1 1.01s.448 1.01 1 1.01h15.593l-5.2 5.275c-.39.394-.39 1.034 0 1.428.391.394 1.024.394 1.414 0l6.899-6.999c.187-.188.294-.451.294-.715 0-.263-.108-.526-.293-.714z"/></g></svg>