<svg enable-background="new 17.7 19.1 21 21" height="21" viewBox="17.7 19.1 21 21" width="21" xmlns="http://www.w3.org/2000/svg"><path d="m38.7 23.1c-.8.3-1.6.6-2.5.7.9-.5 1.6-1.4 1.9-2.4-.8.5-1.8.9-2.7 1-.8-.8-1.9-1.4-3.1-1.4-2.4 0-4.3 1.9-4.3 4.3 0 .3 0 .7.1 1-3.6-.2-6.8-1.9-8.9-4.5-.4.6-.6 1.4-.6 2.2 0 1.5.8 2.8 1.9 3.6-.7 0-1.4-.2-2-.5v.1c0 2.1 1.5 3.8 3.5 4.2-.4.1-.7.2-1.1.2-.3 0-.5 0-.8-.1.5 1.7 2.1 3 4 3-1.5 1.2-3.3 1.8-5.4 1.8-.3 0-.7 0-1-.1 1.9 1.2 4.2 1.9 6.6 1.9 7.9 0 12.3-6.6 12.3-12.3 0-.2 0-.4 0-.6.8-.5 1.5-1.2 2.1-2.1z"/></svg>