<svg enable-background="new 0 0 40.7 40.7" viewBox="0 0 40.7 40.7" xmlns="http://www.w3.org/2000/svg"><path d="m28.4 7h-16.3c-2.8 0-5.1 2.3-5.1 5.1v16.4c0 2.9 2.3 5.1 5.1 5.1h16.4c2.9 0 5.1-2.3 5.1-5.1v-16.4c.1-2.8-2.3-5.1-5.2-5.1zm1.6 3h.6v4.6h-4.4v-4.6zm-13.5 7.7c1.6-2.2 4.6-2.5 6.7-1 .4.2.7.6 1 1 .6.8.8 1.8.8 2.8 0 2.6-2.2 4.7-4.7 4.7-2.6 0-4.7-2.2-4.7-4.7 0-1.2.4-2.1.9-2.8zm14.6 10.9c0 1.4-1.1 2.5-2.5 2.5h-16.5c-1.4 0-2.5-1.1-2.5-2.5v-10.9h4c-.4.8-.5 1.8-.5 2.8 0 4 3.1 7.3 7.2 7.3 4 0 7.3-3.1 7.3-7.2 0-.1 0-.1 0-.2 0-1-.2-1.9-.5-2.8h4v10.9z"/></svg>